<?xml version="1.0" encoding="UTF-8" standalone="no"?>
<svg
   viewBox="0 0 66610.446 186926.53"
   version="1.1"
   id="svg1253"
   sodipodi:docname="dave-profile-r02.svg"
   width="66610.445"
   height="186926.53"
   xmlns:inkscape="http://www.inkscape.org/namespaces/inkscape"
   xmlns:sodipodi="http://sodipodi.sourceforge.net/DTD/sodipodi-0.dtd"
   xmlns="http://www.w3.org/2000/svg"
   xmlns:svg="http://www.w3.org/2000/svg">
  <sodipodi:namedview
     id="namedview1255"
     pagecolor="#ffffff"
     bordercolor="#000000"
     borderopacity="0.25"
     inkscape:showpageshadow="2"
     inkscape:pageopacity="0.0"
     inkscape:pagecheckerboard="0"
     inkscape:deskcolor="#d1d1d1"
     showgrid="false"
     inkscape:zoom="2.9359967"
     inkscape:cx="-58.072273"
     inkscape:cy="221.0493"
     inkscape:window-width="3840"
     inkscape:window-height="2054"
     inkscape:window-x="-9"
     inkscape:window-y="68"
     inkscape:window-maximized="1"
     inkscape:current-layer="svg1253" />
  <defs
     id="defs1221">
    <style
       id="style1219">.a{fill:#231f20;}.b{fill:#030000;}.c{fill:#934d27;}.d{fill:#88684f;}.e{fill:#f1f9fe;}</style>
  </defs>
  <path
     class="a"
     d="M 51.87,48.16 A 179.29,179.29 0 0 0 43.24,64.72 134.56,134.56 0 0 0 36.6,82.16 c -1.72,6 -3,12.14 -2.67,18.35 0.25,3.1 0.45,6.21 0.62,9.33 0.08,1.56 0.15,3.12 0.17,4.68 0,0.79 0,1.57 0,2.37 0,0.39 -0.05,0.79 -0.09,1.2 a 5.59,5.59 0 0 1 -0.13,0.64 1.19,1.19 0 0 1 -0.16,0.39 0.79,0.79 0 0 1 -0.26,0.27 0.6,0.6 0 0 1 -0.75,-0.11 h 0.76 v 0 c -1.13,1.31 -2.23,2.66 -3.26,4.05 a 39.15,39.15 0 0 0 -2.89,4.28 l -4.89,9.22 -2.4,4.63 a 46.8,46.8 0 0 0 -2.29,4.7 17.15,17.15 0 0 0 -1.21,5 7.44,7.44 0 0 0 1.1,4.82 6.92,6.92 0 0 0 4.15,2.57 c 1.65,0.38 3.38,0.72 5.07,0.94 a 19.91,19.91 0 0 0 2.54,0.16 5.7,5.7 0 0 0 1.19,-0.15 4,4 0 0 1 0.71,-0.19 1.68,1.68 0 0 1 0.85,0.25 2.2,2.2 0 0 1 1.11,2.71 2,2 0 0 1 -0.15,0.38 l -0.16,0.29 -0.3,0.57 -0.6,1.15 c -0.8,1.54 -1.59,3.09 -2.35,4.65 -0.39,0.77 -0.76,1.56 -1.12,2.34 -0.17,0.39 -0.35,0.78 -0.5,1.18 a 3.06,3.06 0 0 0 -0.3,1 3.71,3.71 0 0 0 0.47,0.95 c 0.23,0.35 0.47,0.69 0.73,1 q 0.78,1 1.62,2 c 1.11,1.31 2.28,2.6 3.47,3.85 v 0 l 0.23,0.24 -0.14,0.31 c -1.17,2.58 -2.33,5.17 -3.43,7.78 -0.27,0.65 -0.55,1.3 -0.8,2 a 12.7,12.7 0 0 0 -0.65,1.91 c 0,0.14 0,0.26 0,0.42 l 0.05,0.52 c 0,0.34 0.08,0.69 0.11,1 l 0.29,2.1 c 0.83,5.6 1.81,11.2 2.8,16.78 v 0.15 l -4.6,36.18 v -0.14 a 8.66,8.66 0 0 0 2.88,4 14.75,14.75 0 0 0 4.52,2.52 13.1,13.1 0 0 0 1.25,0.42 10.66,10.66 0 0 0 1.26,0.35 c 0.43,0.09 0.87,0.21 1.28,0.29 a 4.7,4.7 0 0 0 1.18,0 27,27 0 0 0 5.09,-1.31 212.76,212.76 0 0 0 19.71,-8.4 c 12.95,-6.13 25.67,-12.75 38.27,-19.58 12.6,-6.83 25.09,-13.88 37.19,-21.53 a 85,85 0 0 0 8.71,-6.14 8.92,8.92 0 0 0 0.87,-0.87 l 0.15,-0.21 c 0,-0.07 0,-0.08 0.06,-0.11 l 0.07,-0.62 a 9,9 0 0 0 0.08,-1.29 c 0,-0.44 0,-0.87 0,-1.32 0,-1.77 -0.14,-3.55 -0.27,-5.33 -0.55,-7.13 -1.35,-14.26 -2.17,-21.38 h 0.39 c 1.2,7.07 2.25,14.17 2.89,21.34 0.15,1.79 0.29,3.59 0.33,5.4 0,0.45 0,0.91 0,1.37 a 11.12,11.12 0 0 1 -0.07,1.4 c 0,0.24 0,0.46 -0.08,0.72 a 3.26,3.26 0 0 1 -0.21,0.5 l -0.24,0.33 a 9,9 0 0 1 -1,1 84.49,84.49 0 0 1 -8.86,6.25 c -12.15,7.69 -24.67,14.7 -37.26,21.58 -12.59,6.88 -25.35,13.47 -38.32,19.62 a 197.56,197.56 0 0 1 -19.88,8.42 28,28 0 0 1 -5.32,1.33 5.73,5.73 0 0 1 -1.49,0 c -0.48,-0.09 -0.9,-0.21 -1.35,-0.31 -0.45,-0.1 -0.89,-0.23 -1.32,-0.37 -0.43,-0.14 -0.88,-0.26 -1.3,-0.45 a 16.27,16.27 0 0 1 -4.81,-2.72 9.53,9.53 0 0 1 -3.2,-4.64 v -0.16 0 l 4.59,-36.18 v 0.15 c -1,-5.6 -2,-11.19 -2.81,-16.82 l -0.29,-2.12 c 0,-0.36 -0.09,-0.7 -0.12,-1.07 v -0.55 a 4.55,4.55 0 0 1 0,-0.64 12.85,12.85 0 0 1 0.71,-2.12 q 0.39,-1 0.81,-2 1.67,-3.93 3.44,-7.81 l 0.09,0.56 v 0 c -1.2,-1.28 -2.37,-2.57 -3.51,-3.9 -0.57,-0.67 -1.12,-1.35 -1.65,-2.05 -0.27,-0.36 -0.53,-0.72 -0.78,-1.1 a 3.8,3.8 0 0 1 -0.61,-1.4 0.86,0.86 0 0 1 0,-0.46 2.43,2.43 0 0 1 0.1,-0.37 c 0.08,-0.22 0.16,-0.44 0.25,-0.64 0.16,-0.42 0.35,-0.82 0.53,-1.22 0.37,-0.79 0.75,-1.58 1.15,-2.35 0.78,-1.56 1.59,-3.11 2.4,-4.64 l 0.62,-1.16 0.31,-0.57 0.15,-0.28 a 1.22,1.22 0 0 0 0.1,-0.23 1.36,1.36 0 0 0 -0.7,-1.71 0.93,0.93 0 0 0 -0.38,-0.14 4,4 0 0 0 -0.54,0.15 6.12,6.12 0 0 1 -1.39,0.16 17.91,17.91 0 0 1 -2.66,-0.19 48.64,48.64 0 0 1 -5.17,-1 7.54,7.54 0 0 1 -4.42,-3 7.75,7.75 0 0 1 -1,-5.18 18.88,18.88 0 0 1 1.37,-5.06 c 0.66,-1.62 1.52,-3.14 2.29,-4.69 l 2.39,-4.64 4.67,-9.33 a 74.27,74.27 0 0 1 5.8,-8.73 v 0 h 0.76 a 0.38,0.38 0 0 0 -0.48,-0.09 c -0.05,0 -0.09,0.1 -0.07,0.06 a 0.62,0.62 0 0 0 0.06,-0.15 3.31,3.31 0 0 0 0.13,-0.5 c 0.07,-0.36 0.12,-0.73 0.16,-1.12 0.08,-0.76 0.12,-1.53 0.15,-2.3 0.05,-1.55 0,-3.11 0,-4.66 -0.06,-3.11 -0.24,-6.22 -0.41,-9.33 -0.34,-6.28 1,-12.48 2.75,-18.45 a 135,135 0 0 1 6.72,-17.44 c 2.62,-5.65 5.43,-11.22 8.58,-16.61 z"
     id="path1223" />
  <path
     class="a"
     d="m 27.36,155.56 a 17.83,17.83 0 0 1 8.09,-0.53 13.26,13.26 0 0 1 3.85,1.44 c 0.61,0.32 1.17,0.74 1.73,1 a 2.73,2.73 0 0 0 1.79,0.14 2.52,2.52 0 0 0 1.37,-1.14 10,10 0 0 0 1,-1.72 17.52,17.52 0 0 0 1.18,-3.81 12.44,12.44 0 0 0 0.16,-4 4.81,4.81 0 0 0 -1.82,-3.4 l 0.06,-0.1 a 5,5 0 0 1 2,3.47 12.92,12.92 0 0 1 -0.05,4.07 17.79,17.79 0 0 1 -1.1,3.93 11,11 0 0 1 -1,1.83 3,3 0 0 1 -1.66,1.4 A 3.29,3.29 0 0 1 40.8,158 c -0.66,-0.31 -1.2,-0.69 -1.78,-1 a 14.33,14.33 0 0 0 -3.67,-1.45 19.94,19.94 0 0 0 -8,0 z"
     id="path1225" />
  <path
     class="b"
     d="m 50.76,111.23 a 0.33,0.33 0 0 0 0.17,-0.26 v 0.73 c 0,0.27 0,0.53 0,0.79 a 13.63,13.63 0 0 0 0.11,1.56 7.75,7.75 0 0 0 0.83,2.85 l -0.24,-0.2 a 0.51,0.51 0 0 1 0.21,0 h 0.36 c 0.25,0 0.51,-0.07 0.76,-0.11 l 1.56,-0.33 c 1,-0.25 2.08,-0.53 3.11,-0.82 2.07,-0.59 4.13,-1.21 6.19,-1.83 v 0 0.55 c -4.37,-0.95 -8.7,-1.91 -13.06,-2.93 z m -0.5,-0.68 c 4.59,1 9.2,2 13.73,3 l 1,0.23 -0.94,0.32 v 0 c -2,0.75 -4.07,1.45 -6.14,2.09 -1,0.32 -2.08,0.63 -3.13,0.91 -0.52,0.14 -1.06,0.27 -1.59,0.39 -0.28,0 -0.55,0.11 -0.84,0.14 H 51.9 a 2.55,2.55 0 0 1 -0.59,-0.07 h -0.14 l -0.1,-0.17 a 8,8 0 0 1 -1,-3.27 c 0,-0.56 -0.07,-1.11 -0.07,-1.66 0,-0.27 0,-0.55 0,-0.82 v -0.41 -0.21 -0.15 a 0.51,0.51 0 0 1 0.26,-0.32 z"
     id="path1227" />
  <path
     class="a"
     d="m 152.13,106.16 a 10,10 0 0 1 5.08,-5.06 20,20 0 0 1 7,-1.8 20.86,20.86 0 0 1 7.29,0.45 10.61,10.61 0 0 1 3.36,1.6 11.47,11.47 0 0 1 2.6,2.65 36,36 0 0 1 3.45,6.44 38.94,38.94 0 0 1 2.44,6.87 20.47,20.47 0 0 1 0.43,7.32 21.28,21.28 0 0 1 -2.26,7 41,41 0 0 1 -4,6.07 c -1.47,1.92 -3,3.8 -4.54,5.65 -3.09,3.7 -6.29,7.32 -9.44,10.95 l -1.18,1.35 c -0.41,0.46 -0.7,0.92 -1.18,1.41 a 12.4,12.4 0 0 1 -3.11,2 20.8,20.8 0 0 1 -7,2.06 7.38,7.38 0 0 1 -1.87,-0.09 2.93,2.93 0 0 1 -1.71,-0.92 33.12,33.12 0 0 1 -2.26,-2.84 69.3,69.3 0 0 1 -3.5,-6.36 l 0.39,-0.2 c 1.13,2.13 2.19,4.3 3.51,6.28 0.67,1 1.47,1.87 2.25,2.8 0.78,0.93 2,0.87 3.15,0.79 a 20.09,20.09 0 0 0 6.78,-2.05 12.29,12.29 0 0 0 2.94,-1.91 c 0.36,-0.37 0.73,-0.93 1.12,-1.37 l 1.17,-1.39 c 3.13,-3.67 6.29,-7.3 9.35,-11 1.53,-1.86 3,-3.73 4.49,-5.64 a 40.49,40.49 0 0 0 3.95,-6 20.6,20.6 0 0 0 2.16,-6.71 19.61,19.61 0 0 0 -0.44,-7 39,39 0 0 0 -2.39,-6.72 35.13,35.13 0 0 0 -3.31,-6.32 11.06,11.06 0 0 0 -2.41,-2.51 9.92,9.92 0 0 0 -3.12,-1.51 20.54,20.54 0 0 0 -7.05,-0.56 20.3,20.3 0 0 0 -6.92,1.59 9.65,9.65 0 0 0 -5.08,4.74 z"
     id="path1229" />
  <path
     class="a"
     d="m 69.09,150.67 a 8.56,8.56 0 0 1 3.21,-0.42 13.82,13.82 0 0 1 3.19,0.53 19.26,19.26 0 0 1 3,1.13 c 0.49,0.24 1,0.5 1.44,0.74 l 1.38,0.83 -0.18,0.29 -1.36,-0.84 c -0.47,-0.25 -0.93,-0.51 -1.41,-0.75 a 19.7,19.7 0 0 0 -3,-1.15 14.48,14.48 0 0 0 -3.13,-0.56 8.39,8.39 0 0 0 -3.12,0.37 z"
     id="path1231" />
  <path
     class="a"
     d="m 51.36,119.33 a 15.87,15.87 0 0 0 4.33,4.39 12.85,12.85 0 0 0 2.67,1.44 12.56,12.56 0 0 0 3,0.73 v 0.16 a 12.9,12.9 0 0 1 -5.86,-2.14 16,16 0 0 1 -4.44,-4.44 z"
     id="path1233" />
  <path
     class="a"
     d="m 205.76,195.77 a 83.31,83.31 0 0 0 1.6,15.87 56.82,56.82 0 0 0 5.11,15.07 33.91,33.91 0 0 0 4.42,6.55 28.26,28.26 0 0 0 2.8,2.78 l 3.11,2.56 c 2.09,1.69 4.22,3.33 6.4,4.87 1.1,0.78 2.22,1.5 3.36,2.17 0.58,0.32 1.16,0.64 1.75,0.9 a 7.78,7.78 0 0 0 0.88,0.32 2.32,2.32 0 0 0 0.42,0.1 h 0.17 c 0,0 0.14,-0.06 0,0.06 l 0.26,-0.11 v 0 a 56,56 0 0 1 6.48,-0.19 11.29,11.29 0 0 1 3.3,0.49 7.89,7.89 0 0 1 2.48,2.23 31.54,31.54 0 0 0 4.44,4.58 29.22,29.22 0 0 0 5.36,3.46 l -0.08,0.17 a 28.81,28.81 0 0 1 -5.53,-3.33 31.78,31.78 0 0 1 -4.64,-4.49 7.55,7.55 0 0 0 -2.29,-2 11.23,11.23 0 0 0 -3.06,-0.33 54,54 0 0 0 -6.35,0.39 v 0 l 0.26,-0.12 a 1,1 0 0 1 -0.54,0.18 h -0.33 a 3.38,3.38 0 0 1 -0.57,-0.12 10.18,10.18 0 0 1 -1,-0.35 c -0.64,-0.28 -1.26,-0.6 -1.86,-0.93 -1.19,-0.68 -2.34,-1.4 -3.46,-2.17 -2.25,-1.54 -4.41,-3.17 -6.54,-4.84 L 218.95,237 a 28.86,28.86 0 0 1 -3,-2.88 35.32,35.32 0 0 1 -4.7,-6.75 58.51,58.51 0 0 1 -5.44,-15.4 85.64,85.64 0 0 1 -1.89,-16.23 z"
     id="path1235" />
  <path
     class="a"
     d="m 47.8,329.67 q -11,25 -21.9,50.12 l -5.36,12.58 c -0.88,2.1 -1.76,4.2 -2.59,6.31 a 33.13,33.13 0 0 0 -2,6.46 c -0.86,4.44 -0.77,9 -0.93,13.57 a 89.33,89.33 0 0 1 -1.39,13.64 l -0.71,-0.13 a 90.27,90.27 0 0 0 1.34,-13.54 c 0.15,-4.53 0,-9.14 0.91,-13.69 a 32.81,32.81 0 0 1 2,-6.6 c 0.83,-2.13 1.7,-4.24 2.58,-6.35 l 5.33,-12.6 Q 35.83,354.3 46.85,329.26 Z"
     id="path1237" />
  <path
     class="a"
     d="m 216.94,234.63 q -18.91,8.77 -37.65,17.9 c -6.24,3.06 -12.46,6.15 -18.63,9.36 -3.08,1.61 -6.14,3.23 -9.17,4.94 -1.51,0.85 -3,1.72 -4.48,2.64 -0.73,0.46 -1.46,0.92 -2.16,1.43 a 10.37,10.37 0 0 0 -1.94,1.65 l -0.28,-0.2 a 10.3,10.3 0 0 1 2,-1.76 c 0.7,-0.53 1.43,-1 2.16,-1.49 1.46,-0.94 2.95,-1.84 4.45,-2.72 3,-1.76 6.05,-3.44 9.11,-5.1 6.12,-3.31 12.29,-6.51 18.48,-9.67 q 18.53,-9.45 37.37,-18.53 z"
     id="path1239" />
  <path
     class="c"
     d="m 32.62,159.95 c 0,0 -8.63,9.55 -8.63,12 0,2.45 7,9.69 7.35,10.79 0.35,1.1 -8,20.7 -7.35,25.32 0.65,4.62 3.45,24.22 0,29.51 -3.45,5.29 -16.7,17.39 -17.36,24.88 -0.66,7.49 -7.93,34.79 -6.39,37.65 1.54,2.86 19.12,36.06 46.43,30.13 27.31,-5.93 111.19,-65.83 112.52,-73.07 1.33,-7.24 -5,-44.91 -7.44,-50.64 -2.44,-5.73 -22.95,-51.36 -21.63,-55.77 1.32,-4.41 6.83,-18.9 13.65,-29.69 6.82,-10.79 7.93,-21.58 23.12,-21.58 15.19,0 16.74,24 16.74,24 0,0 -7.49,45.58 -4.41,50.2 3.08,4.62 23.89,27.08 26.81,21.8 2.92,-5.28 0.82,-6.54 1.12,-8.15 0.3,-1.61 6.79,-26 6.87,-27.26 0.08,-1.26 20.11,-50 17.32,-63.23 C 228.55,83.61 227.83,61.71 220.48,48.12 213.13,34.53 211.85,15.31 195.87,12.04 179.89,8.77 147.59,-9.76 89.42,6.77 c -38.92,18.16 -42.76,35 -42.76,35 l 5.1,6.39 c 0,0 7.9,-11.83 20.23,-15.35 12.33,-3.52 31.71,-5.07 35.23,-1.11 3.52,3.96 1.54,23.56 -3.52,28.63 A 17.34,17.34 0 0 0 98.42,70.9 c 0,0 24,12.33 25.1,15.85 1.1,3.52 -11.45,33.69 -15.86,38.31 -4.41,4.62 -20.91,28.63 -29.06,31.93 -8.15,3.3 -22.46,6.38 -26.64,5.5 -4.18,-0.88 -19.34,-2.54 -19.34,-2.54 z"
     id="path1241"
     style="fill:#775643;fill-opacity:1" />
  <path
     class="d"
     d="M 89.42,6.77"
     id="path1243" />
  <path
     class="d"
     d="M 69.13,13.75"
     id="path1245" />
  <path
     class="d"
     d="m 43.57,97.76 a 8.23,8.23 0 0 1 4.73,-2.87 c 3.42,-0.88 3.42,-0.77 5.62,-2.09 2.2,-1.32 12.88,3.19 15.3,3.19 2.42,0 -2.2,2.76 -2.2,2.76 0,0 -11.23,-3.09 -13.65,-2.54 a 56.2,56.2 0 0 0 -7.71,3.09 c 0,0 -4.07,1.54 -3.08,0 z"
     id="path1247" />
  <path
     class="a"
     d="m 31.36,102.25 c 0,0 3.84,-4.41 5.65,-4.41 1.81,0 19.24,-2.11 43.94,-2.11 24.7,0 59,-0.76 63,0 4,0.76 11.3,4.41 13,5 1.7,0.59 -2.3,1.54 -2.3,1.54 l -11.11,-4.79 c 0,0 -62.62,1.19 -64.34,1.36 -1.72,0.17 -32.54,1.89 -32.54,1.89 a 5.18,5.18 0 0 1 -1.16,2.68 c -1,1 -2.68,2.3 -2.68,3.26 0,0.96 2.1,17.81 2.1,17.81 0,0 2.69,14.17 -2.48,16.08 -5.17,1.91 -11.08,-38.31 -11.08,-38.31 z"
     id="path1249" />
  <path
     class="e"
     d="m 34.58,104.16 c 0,0 3.34,-2.12 4.21,-1.39 0.87,0.73 6.06,23.65 5.44,29.9 -0.62,6.25 -0.46,6.75 -3,5.76 -2.54,-0.99 -7.17,-30.11 -6.65,-34.27 z"
     id="path1251" />
  <path
     style="fill:none;fill-opacity:1;stroke:#000000;stroke-width:0.4;stroke-linejoin:round;stroke-dasharray:none"
     d="m 13.275,432.285 244.815,0.065 -0.07,-174.7"
     id="path8276" />
  <path
     style="fill:#436946;fill-opacity:1;stroke:#000000;stroke-width:0;stroke-linejoin:round;stroke-dasharray:none"
     d="m 13.999953,430.84545 c 0.514635,-2.72165 0.941956,-7.86161 1.165787,-14.02249 0.458449,-12.61867 0.419958,-12.47186 7.826138,-29.85045 3.125903,-7.33492 14.169301,-32.71169 20.62497,-47.39438 l 4.167938,-9.47951 2.166565,-0.64625 c 7.102146,-2.11843 20.073594,-8.54007 34.183575,-16.92291 14.316714,-8.50566 31.967094,-20.19535 46.821864,-31.00971 5.23877,-3.81385 11.63597,-8.61259 12.77455,-9.58258 4.56656,-3.89039 30.42866,-17.13156 65.77609,-33.67678 l 6.93364,-3.24545 1.13079,0.98629 c 5.02898,4.38633 13.88234,10.66494 16.32956,11.58056 1.22512,0.45837 1.49822,0.47018 4.84551,0.20947 1.99677,-0.15552 4.2768,-0.19678 5.21641,-0.0944 l 1.6692,0.18187 3.02502,3.05268 c 2.88354,2.90989 6.19305,5.46166 8.10649,6.25042 0.72123,0.29731 0.75392,0.37462 0.90274,2.13517 0.0849,1.00468 0.1544,40.26687 0.1544,87.24931 v 85.42261 H 135.80246 13.783735 Z"
     id="path8403" />
</svg>
