<svg fill="none" height="512" viewBox="0 0 512 512" width="512" xmlns="http://www.w3.org/2000/svg">
    <style>
    path.icon-foreground {
        fill: #e5e9f0;
    }
    path.icon-background {
        fill: #2e3440;
    }
    @media (prefers-color-scheme:dark) {
        path.icon-foreground {
            fill: #2e3440;
        }
        path.icon-background {
            fill: #e5e9f0;
        }
    }
    </style>
    <path d="m0 0h512v512h-512z" class="icon-background" />
    <path d="m353.598 192.362c1.365-3.204 3.641-4.577 6.373-4.577 8.194 0 20.029 11.442 20.029 21.969 0 59.042-48.252 165.246-152.04 165.246-71.468 0-96.96-48.973-96.96-107.1 0-74.146 44.155-130.9 101.967-130.9 41.424 0 67.371 24.258 67.371 61.331s-33.23 80.554-100.601 81.469c6.828 22.885 22.305 33.412 40.513 33.412 59.178 0 89.677-58.604 113.348-120.85zm-157.503 56.315c38.693-16.019 50.073-33.412 50.073-47.142 0-9.154-4.097-14.189-12.746-14.189-20.029 0-37.327 27.462-37.327 61.331z" class="icon-foreground" />
</svg>